<svg width="329" height="554" viewBox="0 0 329 554" fill="none" xmlns="http://www.w3.org/2000/svg">
<path d="M181.734 92.4482C181.734 92.4482 195.734 126.448 174.734 134.448C174.734 134.448 204.734 147.448 211.734 144.448C218.734 141.448 223.734 134.448 223.734 132.448C223.734 130.448 216.734 129.448 216.734 129.448C216.734 129.448 203.734 130.448 213.734 97.4482L181.734 92.4482Z" fill="#FBBEBE"/>
<path d="M197.734 110.448C211.541 110.448 222.734 99.2554 222.734 85.4482C222.734 71.6411 211.541 60.4482 197.734 60.4482C183.927 60.4482 172.734 71.6411 172.734 85.4482C172.734 99.2554 183.927 110.448 197.734 110.448Z" fill="#FBBEBE"/>
<path d="M181.234 110.948C193.384 110.948 203.234 97.0691 203.234 79.9482C203.234 62.8274 193.384 48.9482 181.234 48.9482C169.084 48.9482 159.234 62.8274 159.234 79.9482C159.234 97.0691 169.084 110.948 181.234 110.948Z" fill="#FF6584"/>
<path d="M165.234 100.948C177.384 100.948 187.234 87.0691 187.234 69.9482C187.234 52.8274 177.384 38.9482 165.234 38.9482C153.084 38.9482 143.234 52.8274 143.234 69.9482C143.234 87.0691 153.084 100.948 165.234 100.948Z" fill="#FF6584"/>
<path d="M143.234 62.9482C149.309 62.9482 154.234 56.0087 154.234 47.4482C154.234 38.8878 149.309 31.9482 143.234 31.9482C137.159 31.9482 132.234 38.8878 132.234 47.4482C132.234 56.0087 137.159 62.9482 143.234 62.9482Z" fill="#FF6584"/>
<path d="M222.734 128.449C222.734 128.449 228.734 116.449 250.734 110.449C272.734 104.449 315.734 32.4485 315.734 32.4485C315.734 32.4485 313.734 -10.5515 323.734 2.44853C333.734 15.4485 325.734 41.4485 325.734 41.4485L299.93 86.0194C295.115 94.3383 289.092 101.896 282.057 108.446C266.104 123.295 237.598 149.449 234.734 149.449C230.734 149.449 222.734 128.449 222.734 128.449Z" fill="#FBBEBE"/>
<path d="M187.734 299.448C187.734 299.448 194.734 384.448 192.734 392.448C190.734 400.448 184.734 416.448 194.734 463.448C204.734 510.448 192.734 507.448 192.734 507.448L224.734 521.448C224.734 521.448 213.734 467.448 215.734 452.448C217.734 437.448 216.734 406.448 222.734 385.448C228.734 364.448 229.734 305.448 229.734 305.448L187.734 299.448Z" fill="#FBBEBE"/>
<path opacity="0.1" d="M187.734 299.448C187.734 299.448 194.734 384.448 192.734 392.448C190.734 400.448 184.734 416.448 194.734 463.448C204.734 510.448 192.734 507.448 192.734 507.448L224.734 521.448C224.734 521.448 213.734 467.448 215.734 452.448C217.734 437.448 216.734 406.448 222.734 385.448C228.734 364.448 229.734 305.448 229.734 305.448L187.734 299.448Z" fill="black"/>
<path d="M223.489 510.629C221.01 512.352 214.641 514.099 202.734 501.448C202.734 501.448 195.734 491.448 189.734 501.448C183.734 511.448 187.734 512.448 191.734 517.448C195.595 522.275 226.481 555.058 239.412 553.727C239.862 553.683 240.305 553.589 240.734 553.448C252.734 549.448 235.734 536.448 235.734 536.448C235.734 536.448 224.589 519.302 224.525 511.205C224.529 511.082 224.498 510.962 224.438 510.855C224.377 510.749 224.289 510.662 224.182 510.602C224.075 510.543 223.954 510.514 223.832 510.519C223.709 510.524 223.591 510.562 223.489 510.629Z" fill="#3F3D56"/>
<path d="M163.734 289.448C163.734 289.448 146.734 328.448 139.734 348.448C136.059 358.948 124.942 362.282 115.21 363.08C103.177 364.017 91.4881 367.539 80.9411 373.407C66.9448 381.263 47.8464 390.179 35.7341 388.448C14.7341 385.448 31.7341 418.448 31.7341 418.448C31.7341 418.448 62.7341 399.448 91.7341 397.448C120.734 395.448 151.734 392.448 165.734 374.448C179.734 356.448 213.734 299.448 213.734 299.448L163.734 289.448Z" fill="#FBBEBE"/>
<path d="M32.7341 413.448C32.7341 413.448 22.7341 406.448 30.7341 399.448C38.7341 392.448 41.7341 386.448 41.7341 386.448C41.7341 386.448 27.7341 371.448 22.7341 379.448C17.7341 387.448 -4.26595 423.448 0.734053 434.448C5.73405 445.448 10.7341 448.448 16.7341 436.448C22.7341 424.448 37.8662 415.001 37.8662 415.001L32.7341 413.448Z" fill="#3F3D56"/>
<path d="M218.734 133.449C218.734 133.449 215.41 140.097 184.517 133.696C180.445 132.798 176.19 133.267 172.411 135.03C168.631 136.793 165.538 139.751 163.609 143.449C159.734 151.199 159.234 162.449 172.734 176.449C172.734 176.449 196.734 203.449 184.734 214.449C172.734 225.449 241.734 207.449 241.734 207.449C241.734 207.449 232.734 201.449 240.734 183.449C247.02 169.306 246.515 161.336 241.644 155.175C238.704 151.342 236.704 146.873 235.805 142.127C234.44 135.432 231.067 127.044 222.734 126.449C222.734 126.449 213.975 125.936 213.354 128.192C212.734 130.449 220.734 132.449 218.734 133.449Z" fill="#F38824"/>
<path d="M182.172 154.662C181.966 153.252 181.713 151.851 181.536 150.436C180.932 145.608 178.636 133.911 170.695 135.923C160.734 138.448 149.734 163.448 149.734 163.448C149.734 163.448 140.734 191.448 127.734 198.448C114.734 205.448 78.734 241.448 78.734 241.448C78.734 241.448 48.734 249.448 59.734 257.448C70.734 265.448 84.734 252.448 84.734 252.448L120.103 231.227C132.473 223.786 143.11 213.785 151.299 201.896C158.667 191.225 167.894 178.892 173.741 174.816C177.282 172.449 179.939 168.975 181.298 164.937C182.365 161.623 182.665 158.109 182.172 154.662Z" fill="#FBBEBE"/>
<path d="M190.734 212.448C190.734 212.448 144.734 206.448 118.734 237.448C92.734 268.448 73.734 259.448 75.734 264.448C77.734 269.448 173.734 328.449 229.734 321.449C263.827 317.187 281.982 313.296 290.969 310.904C294.827 309.912 298.229 307.63 300.61 304.437C301.944 302.67 303.597 301.169 305.484 300.011C306.453 299.374 307.285 298.549 307.929 297.585C308.573 296.621 309.017 295.537 309.234 294.398C309.451 293.259 309.437 292.088 309.193 290.954C308.949 289.82 308.479 288.747 307.812 287.799C291.952 264.853 248.896 204.07 236.734 202.448C221.734 200.448 190.734 212.448 190.734 212.448Z" fill="#F38824"/>
<path d="M198.234 69.9482C207.071 69.9482 214.234 64.7995 214.234 58.4482C214.234 52.097 207.071 46.9482 198.234 46.9482C189.397 46.9482 182.234 52.097 182.234 58.4482C182.234 64.7995 189.397 69.9482 198.234 69.9482Z" fill="#FF6584"/>
</svg>
