<svg width="262" height="545" viewBox="0 0 262 545" fill="none" xmlns="http://www.w3.org/2000/svg">
<path d="M120.789 85.166C121.809 79.8892 123.202 74.6916 124.959 69.6125C126.767 64.67 129.053 60.4534 131.601 60.4534C137.779 60.4534 109.977 34.1963 109.977 34.1963C109.977 34.1963 108.232 37.4398 105.344 41.8109C103.21 45.0743 100.9 48.2195 98.4243 51.2325C95.129 55.3967 91.2113 59.0279 86.8093 61.998C74.453 69.7206 120.789 85.166 120.789 85.166Z" fill="#A0616A"/>
<path d="M202.586 187.55C202.586 187.55 264.523 226.683 245.439 233.113C226.355 239.543 194.739 193.569 194.739 193.569L202.586 187.55Z" fill="#A0616A"/>
<path d="M119.509 98.6627C119.509 98.6627 149.174 120.294 157.843 136.748C166.512 153.203 211.584 189.768 211.584 189.768C211.584 189.768 202.278 208.154 197.779 207.045C193.28 205.936 100.529 136.934 90.7707 131.347C81.0127 125.759 95.8851 91.2472 119.509 98.6627Z" fill="#F38824"/>
<path opacity="0.1" d="M119.509 98.6627C119.509 98.6627 149.174 120.294 157.843 136.748C166.512 153.203 211.584 189.768 211.584 189.768C211.584 189.768 202.278 208.154 197.779 207.045C193.28 205.936 100.529 136.934 90.7707 131.347C81.0127 125.759 95.8851 91.2472 119.509 98.6627Z" fill="black"/>
<path d="M207.283 137.68C207.283 137.68 276.787 160.848 259.797 171.66C242.808 182.472 201.105 145.403 201.105 145.403L207.283 137.68Z" fill="#A0616A"/>
<path d="M162.492 454.31C162.492 454.31 191.838 441.954 188.749 460.488C185.66 479.023 171.759 496.013 171.759 505.28C171.759 514.547 145.502 534.626 140.868 529.992C136.234 525.359 148.591 506.824 145.502 496.013C142.413 485.201 139.324 460.488 139.324 460.488L162.492 454.31Z" fill="#55536E"/>
<path opacity="0.1" d="M162.492 454.31C162.492 454.31 191.838 441.954 188.749 460.488C185.66 479.023 171.759 496.013 171.759 505.28C171.759 514.547 145.502 534.626 140.868 529.992C136.234 525.359 148.591 506.824 145.502 496.013C142.413 485.201 139.324 460.488 139.324 460.488L162.492 454.31Z" fill="black"/>
<path d="M153.224 468.211C153.224 468.211 182.571 455.855 179.482 474.389C176.392 492.924 162.492 509.914 162.492 519.181C162.492 528.448 136.235 548.527 131.601 543.893C126.967 539.26 139.324 520.725 136.234 509.913C133.145 499.102 130.056 474.389 130.056 474.389L153.224 468.211Z" fill="#55536E"/>
<path d="M85.2648 355.46C85.2648 355.46 176.392 441.954 173.303 449.677C170.214 457.399 150.135 474.389 150.135 474.389C150.135 474.389 80.6312 383.262 85.2648 355.46Z" fill="#3F3D56"/>
<path opacity="0.1" d="M85.2648 355.46C85.2648 355.46 176.392 441.954 173.303 449.677C170.214 457.399 150.135 474.389 150.135 474.389C150.135 474.389 80.6312 383.262 85.2648 355.46Z" fill="black"/>
<path d="M63.6412 199.462C63.6412 199.462 86.8093 222.63 80.6311 267.421C74.453 312.213 85.2647 355.46 97.621 369.361C109.977 383.262 160.947 463.577 160.947 463.577C160.947 463.577 139.324 499.102 122.334 480.567C105.344 462.033 54.3739 386.351 54.3739 386.351C54.3739 386.351 8.03789 295.223 3.40428 270.51C-1.22933 245.798 -2.77386 207.184 9.58244 199.462C21.9387 191.739 63.6412 199.462 63.6412 199.462Z" fill="#3F3D56"/>
<path opacity="0.1" d="M101.946 46.6914C119.986 50.4292 118.194 51.1551 129.284 55.0474C129.346 54.862 129.408 54.7076 129.469 54.5531C131.168 50.5064 132.234 55.8196 134.69 55.8196C140.868 55.8196 113.066 29.5625 113.066 29.5625C113.066 29.5625 112.016 31.5086 110.209 34.4278C109.668 35.2773 109.082 36.204 108.433 37.1771C107.892 37.9957 107.305 38.8606 106.688 39.7565L101.946 46.6914Z" fill="black"/>
<path d="M134.69 68.1758C150.897 68.1758 164.036 55.0371 164.036 38.8296C164.036 22.6221 150.897 9.4834 134.69 9.4834C118.482 9.4834 105.344 22.6221 105.344 38.8296C105.344 55.0371 118.482 68.1758 134.69 68.1758Z" fill="#A0616A"/>
<path d="M80.6312 60.4531C80.6312 60.4531 125.423 65.0867 134.69 85.1657C143.957 105.245 77.5421 202.551 72.9084 204.095C68.2748 205.64 3.4043 213.362 3.4043 213.362C3.4043 213.362 6.49335 114.512 66.7303 77.443C66.7303 77.443 80.6312 71.2649 80.6312 60.4531Z" fill="#F38824"/>
<path d="M105.344 71.2652C105.344 71.2652 139.324 85.166 151.68 99.0669C164.036 112.968 216.55 137.68 216.55 137.68C216.55 137.68 211.917 157.759 207.283 157.759C202.65 157.759 96.0765 112.968 85.2648 109.879C74.453 106.79 80.6312 69.7207 105.344 71.2652Z" fill="#F38824"/>
<path d="M132.373 42.691C132.373 42.691 140.096 34.9683 124.65 28.7902C124.65 28.7902 140.096 22.612 143.185 13.3448C146.274 4.07758 157.086 -11.3678 166.353 13.3448C175.62 38.0574 192.61 70.4927 137.007 70.4927C137.007 70.4927 123.106 73.5818 123.106 61.2255C123.106 57.6287 123.943 54.0814 125.552 50.8644C127.16 47.6474 129.496 44.849 132.373 42.691Z" fill="#3F3D56"/>
</svg>
